<svg xmlns="http://www.w3.org/2000/svg" viewBox="0 0 1200 900"><rect x="0" y="0" width="1200" height="900" rx="36" fill="#fcf9fc"/><rect x="34" y="34" width="1132" height="832" rx="30" fill="white" stroke="#e7dbe7" stroke-width="2"/><circle cx="1030" cy="152" r="130" fill="#86bfdf" opacity="0.10"/><circle cx="154" cy="748" r="118" fill="#f2c45c" opacity="0.12"/><rect x="94" y="88" width="196" height="38" rx="19" fill="#86bfdf" opacity="0.16"/><text x="192.0" y="112" text-anchor="middle" font-family="Arial" font-size="16" font-weight="700" fill="#302b35">Jewelry Accessories</text><rect x="304" y="88" width="144" height="38" rx="19" fill="#f2c45c" opacity="0.16"/><text x="376.0" y="112" text-anchor="middle" font-family="Arial" font-size="16" font-weight="700" fill="#302b35">CDK792</text><rect x="462" y="88" width="140" height="38" rx="19" fill="#98d1bf" opacity="0.16"/><text x="532.0" y="112" text-anchor="middle" font-family="Arial" font-size="16" font-weight="700" fill="#302b35">Metal</text><circle cx="280" cy="270" r="58" fill="none" stroke="#86bfdf" stroke-width="16"/><circle cx="316" cy="234" r="24" fill="none" stroke="#b8bdc8" stroke-width="10"/><rect x="402" y="252" width="136" height="36" rx="18" fill="#b9bdc9"/><circle cx="418" cy="270" r="18" fill="none" stroke="#f2c45c" stroke-width="8"/><circle cx="522" cy="270" r="18" fill="none" stroke="#f2c45c" stroke-width="8"/><circle cx="660" cy="270" r="58" fill="none" stroke="#98d1bf" stroke-width="16"/><circle cx="696" cy="234" r="24" fill="none" stroke="#b8bdc8" stroke-width="10"/><rect x="307" y="437" width="136" height="36" rx="18" fill="#b9bdc9"/><circle cx="323" cy="455" r="18" fill="none" stroke="#b3b7c3" stroke-width="8"/><circle cx="427" cy="455" r="18" fill="none" stroke="#b3b7c3" stroke-width="8"/><circle cx="565" cy="455" r="58" fill="none" stroke="#f09090" stroke-width="16"/><circle cx="601" cy="419" r="24" fill="none" stroke="#b8bdc8" stroke-width="10"/><rect x="820" y="238" width="200" height="280" rx="30" fill="#fff" stroke="#e7dbe7"/><circle cx="920" cy="325" r="60" fill="none" stroke="#c9ae61" stroke-width="18"/><path d="M 885 410 L 955 410" stroke="#abb2c2" stroke-width="14" stroke-linecap="round"/><rect x="88" y="676" width="1024" height="122" rx="26" fill="#f6f1fb" stroke="#e7dbe7" stroke-width="2"/><text x="118" y="726" font-family="Arial" font-size="22" font-weight="800" fill="#302b35">Pastel Love Heart Lobster Claw Jewelry Accessories</text><text x="118" y="762" font-family="Arial" font-size="18" fill="#756c78">Hardware design. Functional jewelry components for assembly and finishing needs.</text><text x="1028" y="742" text-anchor="end" font-family="Arial" font-size="18" font-weight="800" fill="#302b35">CDK792</text></svg>