<svg xmlns="http://www.w3.org/2000/svg" viewBox="0 0 1200 900"><rect x="0" y="0" width="1200" height="900" rx="36" fill="#fcf9fc"/><rect x="34" y="34" width="1132" height="832" rx="30" fill="white" stroke="#e7dbe7" stroke-width="2"/><circle cx="1030" cy="152" r="130" fill="#ffb25b" opacity="0.10"/><circle cx="154" cy="748" r="118" fill="#9c81df" opacity="0.12"/><rect x="94" y="88" width="168" height="38" rx="19" fill="#ffb25b" opacity="0.16"/><text x="178.0" y="112" text-anchor="middle" font-family="Arial" font-size="16" font-weight="700" fill="#302b35">Slime Charms</text><rect x="276" y="88" width="144" height="38" rx="19" fill="#9c81df" opacity="0.16"/><text x="348.0" y="112" text-anchor="middle" font-family="Arial" font-size="16" font-weight="700" fill="#302b35">SLM693</text><rect x="434" y="88" width="144" height="38" rx="19" fill="#ef6f9f" opacity="0.16"/><text x="506.0" y="112" text-anchor="middle" font-family="Arial" font-size="16" font-weight="700" fill="#302b35">Animal</text><rect x="195" y="225" width="130" height="110" rx="35" fill="#ffb25b"/><circle cx="232" cy="236" r="20" fill="#ffb25b"/><circle cx="288" cy="236" r="20" fill="#ffb25b"/><circle cx="238" cy="270" r="8" fill="#fff"/><circle cx="282" cy="270" r="8" fill="#fff"/><path d="M 242 298 Q 260 315 278 298" stroke="#fff" stroke-width="7" fill="none" stroke-linecap="round"/><rect x="415" y="225" width="130" height="110" rx="35" fill="#9c81df"/><circle cx="452" cy="236" r="20" fill="#9c81df"/><circle cx="508" cy="236" r="20" fill="#9c81df"/><circle cx="458" cy="270" r="8" fill="#fff"/><circle cx="502" cy="270" r="8" fill="#fff"/><path d="M 462 298 Q 480 315 498 298" stroke="#fff" stroke-width="7" fill="none" stroke-linecap="round"/><rect x="635" y="225" width="130" height="110" rx="35" fill="#ef6f9f"/><circle cx="672" cy="236" r="20" fill="#ef6f9f"/><circle cx="728" cy="236" r="20" fill="#ef6f9f"/><circle cx="678" cy="270" r="8" fill="#fff"/><circle cx="722" cy="270" r="8" fill="#fff"/><path d="M 682 298 Q 700 315 718 298" stroke="#fff" stroke-width="7" fill="none" stroke-linecap="round"/><rect x="195" y="405" width="130" height="110" rx="35" fill="#ffd75d"/><circle cx="232" cy="416" r="20" fill="#ffd75d"/><circle cx="288" cy="416" r="20" fill="#ffd75d"/><circle cx="238" cy="450" r="8" fill="#fff"/><circle cx="282" cy="450" r="8" fill="#fff"/><path d="M 242 478 Q 260 495 278 478" stroke="#fff" stroke-width="7" fill="none" stroke-linecap="round"/><rect x="415" y="405" width="130" height="110" rx="35" fill="#6fcdb2"/><circle cx="452" cy="416" r="20" fill="#6fcdb2"/><circle cx="508" cy="416" r="20" fill="#6fcdb2"/><circle cx="458" cy="450" r="8" fill="#fff"/><circle cx="502" cy="450" r="8" fill="#fff"/><path d="M 462 478 Q 480 495 498 478" stroke="#fff" stroke-width="7" fill="none" stroke-linecap="round"/><rect x="635" y="405" width="130" height="110" rx="35" fill="#70b7ef"/><circle cx="672" cy="416" r="20" fill="#70b7ef"/><circle cx="728" cy="416" r="20" fill="#70b7ef"/><circle cx="678" cy="450" r="8" fill="#fff"/><circle cx="722" cy="450" r="8" fill="#fff"/><path d="M 682 478 Q 700 495 718 478" stroke="#fff" stroke-width="7" fill="none" stroke-linecap="round"/><rect x="88" y="676" width="1024" height="122" rx="26" fill="#f6f1fb" stroke="#e7dbe7" stroke-width="2"/><text x="118" y="726" font-family="Arial" font-size="22" font-weight="800" fill="#302b35">Snack Food Series Sprinkles Beer Toast Slime Charms</text><text x="118" y="762" font-family="Arial" font-size="18" fill="#756c78">Animal-themed design. Bulk slime charms in clean assorted packs for wholesale buyers.</text><text x="1028" y="742" text-anchor="end" font-family="Arial" font-size="18" font-weight="800" fill="#302b35">SLM693</text></svg>